<svg xmlns="http://www.w3.org/2000/svg" width="1000" height="1000"><path fill="#84C7E9" d="M882,999H118.2c-64.3,0-117-52.7-117-117V118.2c0-64.3,52.7-117,117-117H882c64.3,0,117,52.7,117,117V882,C999,946.3,946.3,999,882,999z"/><path d="M266.1,764.3V348.7c-18,14.2-71.1,41.9-90.6,51.7l-27.7,14.2l-35.9-80.9l32.2-15c61.4-28.5,118.3-64.4,142.3-83.1h92.1,v528.7H266.1z"/><path d="M680.2,774.8c-68.1,0-109.3-15.7-152-39.7l40.4-81.6c22.5,17.2,59.2,34.4,104.1,34.4c61.4,0,99.6-33,99.6-77.9,c0-60.7-46.4-80.1-100.3-80.1h-54.7v-87.6h55.4c51.7,0,83.9-25.5,83.9-65.9c0-33.7-25.5-62.9-80.9-62.9,c-48.7,0-80.9,23.2-98.1,38.2l-36.7-77.9c45.7-30,96.6-47.2,158.8-47.2c107.8,0,169.2,62.9,169.2,133.3,c0,54.7-29.2,96.6-85.4,117.6v1.5c58.4,11.2,102.6,54.7,102.6,128.8C886.1,700.7,803,774.8,680.2,774.8z"/></svg>