<svg xmlns="http://www.w3.org/2000/svg" width="1000" height="1000"><path fill="#F1B2CB" d="M882,999H118.2c-64.3,0-117-52.7-117-117V118.2c0-64.3,52.7-117,117-117H882c64.3,0,117,52.7,117,117V882,C999,946.3,946.3,999,882,999z"/><path d="M266.1,764.3V348.7c-18,14.2-71.1,41.9-90.6,51.7l-27.7,14.2l-35.9-80.9l32.2-15c61.4-28.5,118.3-64.4,142.3-83.1h92.1,v528.7H266.1z"/><path d="M852.4,654.3v110.1H750.6V654.3H512.5v-98.1l205.2-320.5h134.8v336.2h65.2v82.4H852.4z M750.6,328.5h-1.5,c-2.2,9-17.2,41.2-38.2,74.1L603.1,571.9h147.5V328.5z"/></svg>