<svg xmlns="http://www.w3.org/2000/svg" width="1000" height="1000"><path fill="#489244" d="M882,999H118.2c-64.3,0-117-52.7-117-117V118.2c0-64.3,52.7-117,117-117H882c64.3,0,117,52.7,117,117V882,C999,946.3,946.3,999,882,999z"/><path fill="#FEFEFE" d="M266.1,764.3V348.7c-18,14.2-71.1,41.9-90.6,51.7l-27.7,14.2l-35.9-80.9l32.2-15,c61.4-28.5,118.3-64.4,142.3-83.1h92.1v528.7H266.1z"/><path fill="#FEFEFE" d="M542.4,764.3v-69.6c13.5-61.4,74.1-115.3,144.5-176.7c35.2-30.7,73.4-67.4,73.4-118.3,c0-45.7-30-82.4-87.6-82.4c-46.4,0-78.6,33.7-91.4,47.9l-55.4-73.4c50.9-44.2,98.1-65.2,169.2-65.2c92.9,0,180.5,52.4,180.5,160.3,c0,90.6-57.7,131.8-121.3,189.5c-27,24.7-80.1,68.9-86.9,99.6h217.9v88.4H542.4z"/></svg>