<svg xmlns="http://www.w3.org/2000/svg" width="1000" height="1000"><path fill="#E4452E" d="M882,999H118.2c-64.3,0-117-52.7-117-117V118.2c0-64.3,52.7-117,117-117H882c64.3,0,117,52.7,117,117V882,C999,946.3,946.3,999,882,999z"/><path fill="#FEFEFE" d="M266.1,764.3V348.7c-18,14.2-71.1,41.9-90.6,51.7l-27.7,14.2l-35.9-80.9l32.2-15,c61.4-28.5,118.3-64.4,142.3-83.1h92.1v528.7H266.1z"/><path fill="#FEFEFE" d="M713.1,764.3H592.6c0-69.6,18.7-114.6,65.2-200.7L786.5,324H529.7v-88.4h369.9v86.1,C783.5,523.2,713.1,681.2,713.1,764.3z"/></svg>