<svg xmlns="http://www.w3.org/2000/svg" width="1000" height="1000"><path fill="#E4452E" d="M882,999H118.2c-64.3,0-117-52.7-117-117V118.2c0-64.3,52.7-117,117-117H882c64.3,0,117,52.7,117,117V882,C999,946.3,946.3,999,882,999z"/><path fill="#FEFEFE" d="M123,764.3v-69.6c13.5-61.4,74.1-115.3,144.5-176.7c35.2-30.7,73.4-67.4,73.4-118.3,c0-45.7-30-82.4-87.6-82.4c-46.4,0-78.6,33.7-91.4,47.9l-55.4-73.4c50.9-44.2,98.1-65.2,169.2-65.2c92.9,0,180.5,52.4,180.5,160.3,c0,90.6-57.7,131.8-121.3,189.5c-27,24.7-80.1,68.9-86.9,99.6H466v88.4H123z"/><path fill="#FEFEFE" d="M711.6,776.3c-117.6,0-184.2-70.4-184.2-150.5c0-70.4,39.7-111.6,90.6-137.8,c-45.7-28.5-74.1-60.7-74.1-115.3c0-87.6,79.4-148.3,170-148.3c92.9,0,170,45.7,170,136.3c0,49.4-25.5,87.6-74.9,117.6,c48.7,23.2,91.4,65.2,91.4,134.8C900.4,713.4,820.2,776.3,711.6,776.3z M702.7,524.7c-34.4,13.5-68.9,47.9-68.9,89.1,c0,43.4,28.5,84.6,79.4,84.6c50.2,0,77.9-35.2,77.9-77.1C791,573.4,747.6,547.2,702.7,524.7z M715.4,300.8,c-41.2,0-67.4,25.5-67.4,62.2c0,43.4,43.4,66.6,77.1,80.9c27.7-12.7,57.7-43.4,57.7-76.4C782.8,330.7,758.8,300.8,715.4,300.8z"/></svg>