<svg xmlns="http://www.w3.org/2000/svg" width="1000" height="1000"><path fill="#EB7F3C" d="M882,999H118.2c-64.3,0-117-52.7-117-117V118.2c0-64.3,52.7-117,117-117H882c64.3,0,117,52.7,117,117V882,C999,946.3,946.3,999,882,999z"/><path fill="#FEFEFE" d="M123,764.3v-69.6c13.5-61.4,74.1-115.3,144.5-176.7c35.2-30.7,73.4-67.4,73.4-118.3,c0-45.7-30-82.4-87.6-82.4c-46.4,0-78.6,33.7-91.4,47.9l-55.4-73.4c50.9-44.2,98.1-65.2,169.2-65.2c92.9,0,180.5,52.4,180.5,160.3,c0,90.6-57.7,131.8-121.3,189.5c-27,24.7-80.1,68.9-86.9,99.6H466v88.4H123z"/><path fill="#FEFEFE" d="M649.5,773.3c-30,0-56.9-3.7-78.6-9l16.5-89.9c14.2,6,41.2,12.7,71.1,12.7c72.6,0,127.3-53.2,134-159.5,c-18,15.7-51.7,35.9-107.8,35.9c-86.1,0-156.5-57.7-156.5-156.5c0-105.6,70.4-182.7,179-182.7c142.3,0,193.2,99.6,193.2,239.6,C900.4,647.5,815.7,773.3,649.5,773.3z M710.9,307.5c-50.9,0-77.1,42.7-77.1,88.4c0,49.4,32.2,84.6,83.1,84.6,c32.2,0,58.4-12.7,68.9-29.2c6-9,6-29.2,6-44.9C791.8,356.2,763.3,307.5,710.9,307.5z"/></svg>