<svg xmlns="http://www.w3.org/2000/svg" width="1000" height="1000"><path fill="#F8CD1B" d="M882,999H118.2c-64.3,0-117-52.7-117-117V118.2c0-64.3,52.7-117,117-117H882c64.3,0,117,52.7,117,117V882,C999,946.3,946.3,999,882,999z"/><path d="M123,764.3v-69.6c13.5-61.4,74.1-115.3,144.5-176.7c35.2-30.7,73.4-67.4,73.4-118.3c0-45.7-30-82.4-87.6-82.4,c-46.4,0-78.6,33.7-91.4,47.9l-55.4-73.4c50.9-44.2,98.1-65.2,169.2-65.2c92.9,0,180.5,52.4,180.5,160.3,c0,90.6-57.7,131.8-121.3,189.5c-27,24.7-80.1,68.9-86.9,99.6H466v88.4H123z"/><path d="M712.4,777.8c-159.5,0-191-154.3-191-276.3c0-122.1,34.4-276.3,194-276.3c159.5,0,191,154.3,191,276.3,C906.4,623.6,871.9,777.8,712.4,777.8z M713.9,314.3c-76.4,0-78.6,133.3-78.6,187.2c0,53.2,3.7,188,78.6,188s77.9-135.5,77.9-188,C791.8,446.1,789.5,314.3,713.9,314.3z"/></svg>