<svg xmlns="http://www.w3.org/2000/svg" width="1000" height="1000"><path fill="#84C7E9" d="M882,999H118.2c-64.3,0-117-52.7-117-117V118.2c0-64.3,52.7-117,117-117H882c64.3,0,117,52.7,117,117V882,C999,946.3,946.3,999,882,999z"/><path d="M260.8,774.8c-68.1,0-109.3-15.7-152-39.7l40.4-81.6c22.5,17.2,59.2,34.4,104.1,34.4c61.4,0,99.6-33,99.6-77.9,c0-60.7-46.4-80.1-100.3-80.1h-54.7v-87.6h55.4c51.7,0,83.9-25.5,83.9-65.9c0-33.7-25.5-62.9-80.9-62.9,c-48.7,0-80.9,23.2-98.1,38.2l-36.7-77.9c45.7-30,96.6-47.2,158.8-47.2c107.8,0,169.2,62.9,169.2,133.3,c0,54.7-29.2,96.6-85.4,117.6v1.5c58.4,11.2,102.6,54.7,102.6,128.8C466.8,700.7,383.6,774.8,260.8,774.8z"/><path d="M724.4,776.3c-142.3,0-193.2-99.6-193.2-239.6c0-183.5,84.6-309.3,250.9-309.3c30,0,56.9,3.7,78.6,9l-16.5,89.9,c-14.2-6-41.2-12.7-71.1-12.7c-72.6,0-127.3,53.2-134,159.5c18-15.7,51.7-35.9,107.8-35.9c86.1,0,156.5,57.7,156.5,156.5,C903.4,699.2,833,776.3,724.4,776.3z M714.6,520.2c-32.2,0-58.4,12.7-68.9,29.2c-6,9-6,29.2-6,44.9c0,50.2,28.5,98.9,80.9,98.9,c50.9,0,77.1-42.7,77.1-88.4C797.8,555.4,765.6,520.2,714.6,520.2z"/></svg>