<svg xmlns="http://www.w3.org/2000/svg" width="1000" height="1000"><path fill="#489244" d="M882,999H118.2c-64.3,0-117-52.7-117-117V118.2c0-64.3,52.7-117,117-117H882c64.3,0,117,52.7,117,117V882,C999,946.3,946.3,999,882,999z"/><path fill="#FEFEFE" d="M266.1,774.8c-56.2,0-104.1-15-145.3-38.2l38.9-82.4c25.5,17.2,55.4,33.7,100.3,33.7,c41.2,0,92.9-23.2,92.9-85.4c0-38.2-25.5-90.6-122.8-91.4l-82.4-0.7l21-274.8h277.8v87.6H256.3l-7.5,101.1l15,0.7,c144.5,7.5,202.9,87.6,202.9,167C466.8,693.2,386.6,774.8,266.1,774.8z"/><path fill="#FEFEFE" d="M711.6,776.3c-117.6,0-184.2-70.4-184.2-150.5c0-70.4,39.7-111.6,90.6-137.8,c-45.7-28.5-74.1-60.7-74.1-115.3c0-87.6,79.4-148.3,170-148.3c92.9,0,170,45.7,170,136.3c0,49.4-25.5,87.6-74.9,117.6,c48.7,23.2,91.4,65.2,91.4,134.8C900.4,713.4,820.2,776.3,711.6,776.3z M702.7,524.7c-34.4,13.5-68.9,47.9-68.9,89.1,c0,43.4,28.5,84.6,79.4,84.6c50.2,0,77.9-35.2,77.9-77.1C791,573.4,747.6,547.2,702.7,524.7z M715.4,300.8,c-41.2,0-67.4,25.5-67.4,62.2c0,43.4,43.4,66.6,77.1,80.9c27.7-12.7,57.7-43.4,57.7-76.4C782.8,330.7,758.8,300.8,715.4,300.8z"/></svg>