<svg xmlns="http://www.w3.org/2000/svg" width="1000" height="1000"><path fill="#C6CF32" d="M882,999H118.2c-64.3,0-117-52.7-117-117V118.2c0-64.3,52.7-117,117-117H882c64.3,0,117,52.7,117,117V882,C999,946.3,946.3,999,882,999z"/><path d="M266.1,774.8c-56.2,0-104.1-15-145.3-38.2l38.9-82.4c25.5,17.2,55.4,33.7,100.3,33.7c41.2,0,92.9-23.2,92.9-85.4,c0-38.2-25.5-90.6-122.8-91.4l-82.4-0.7l21-274.8h277.8v87.6H256.3l-7.5,101.1l15,0.7c144.5,7.5,202.9,87.6,202.9,167,C466.8,693.2,386.6,774.8,266.1,774.8z"/><path d="M712.4,777.8c-159.5,0-191-154.3-191-276.3c0-122.1,34.4-276.3,194-276.3c159.5,0,191,154.3,191,276.3,C906.4,623.6,871.9,777.8,712.4,777.8z M713.9,314.3c-76.4,0-78.6,133.3-78.6,187.2c0,53.2,3.7,188,78.6,188s77.9-135.5,77.9-188,C791.8,446.1,789.5,314.3,713.9,314.3z"/></svg>