<svg xmlns="http://www.w3.org/2000/svg" width="1000" height="1000"><path fill="#E7BB28" d="M882,999H118.2c-64.3,0-117-52.7-117-117V118.2c0-64.3,52.7-117,117-117H882c64.3,0,117,52.7,117,117V882,C999,946.3,946.3,999,882,999z"/><path d="M305,776.3c-142.3,0-193.2-99.6-193.2-239.6c0-183.5,84.6-309.3,250.9-309.3c30,0,56.9,3.7,78.6,9l-16.5,89.9,c-14.2-6-41.2-12.7-71.1-12.7c-72.6,0-127.3,53.2-134,159.5c18-15.7,51.7-35.9,107.8-35.9c86.1,0,156.5,57.7,156.5,156.5,C484,699.2,413.6,776.3,305,776.3z M295.3,520.2c-32.2,0-58.4,12.7-68.9,29.2c-6,9-6,29.2-6,44.9c0,50.2,28.5,98.9,80.9,98.9,c50.9,0,77.1-42.7,77.1-88.4C378.4,555.4,346.2,520.2,295.3,520.2z"/><path d="M685.4,774.8c-56.2,0-104.1-15-145.3-38.2l38.9-82.4c25.5,17.2,55.4,33.7,100.3,33.7c41.2,0,92.9-23.2,92.9-85.4,c0-38.2-25.5-90.6-122.8-91.4l-82.4-0.7l21-274.8h277.8v87.6H675.7l-7.5,101.1l15,0.7c144.5,7.5,202.9,87.6,202.9,167,C886.1,693.2,806,774.8,685.4,774.8z"/></svg>