<svg xmlns="http://www.w3.org/2000/svg" width="1000" height="1000"><path fill="#F1B2CB" d="M882,999H118.2c-64.3,0-117-52.7-117-117V118.2c0-64.3,52.7-117,117-117H882c64.3,0,117,52.7,117,117V882,C999,946.3,946.3,999,882,999z"/><path d="M305,776.3c-142.3,0-193.2-99.6-193.2-239.6c0-183.5,84.6-309.3,250.9-309.3c30,0,56.9,3.7,78.6,9l-16.5,89.9,c-14.2-6-41.2-12.7-71.1-12.7c-72.6,0-127.3,53.2-134,159.5c18-15.7,51.7-35.9,107.8-35.9c86.1,0,156.5,57.7,156.5,156.5,C484,699.2,413.6,776.3,305,776.3z M295.3,520.2c-32.2,0-58.4,12.7-68.9,29.2c-6,9-6,29.2-6,44.9c0,50.2,28.5,98.9,80.9,98.9,c50.9,0,77.1-42.7,77.1-88.4C378.4,555.4,346.2,520.2,295.3,520.2z"/><path d="M712.4,777.8c-159.5,0-191-154.3-191-276.3c0-122.1,34.4-276.3,194-276.3c159.5,0,191,154.3,191,276.3,C906.4,623.6,871.9,777.8,712.4,777.8z M713.9,314.3c-76.4,0-78.6,133.3-78.6,187.2c0,53.2,3.7,188,78.6,188s77.9-135.5,77.9-188,C791.8,446.1,789.5,314.3,713.9,314.3z"/></svg>