<svg xmlns="http://www.w3.org/2000/svg" width="1000" height="1000"><path fill="#E4452E" d="M882,999H118.2c-64.3,0-117-52.7-117-117V118.2c0-64.3,52.7-117,117-117H882c64.3,0,117,52.7,117,117V882,C999,946.3,946.3,999,882,999z"/><path fill="#FEFEFE" d="M305,776.3c-142.3,0-193.2-99.6-193.2-239.6c0-183.5,84.6-309.3,250.9-309.3c30,0,56.9,3.7,78.6,9,l-16.5,89.9c-14.2-6-41.2-12.7-71.1-12.7c-72.6,0-127.3,53.2-134,159.5c18-15.7,51.7-35.9,107.8-35.9,c86.1,0,156.5,57.7,156.5,156.5C484,699.2,413.6,776.3,305,776.3z M295.3,520.2c-32.2,0-58.4,12.7-68.9,29.2c-6,9-6,29.2-6,44.9,c0,50.2,28.5,98.9,80.9,98.9c50.9,0,77.1-42.7,77.1-88.4C378.4,555.4,346.2,520.2,295.3,520.2z"/><path fill="#FEFEFE" d="M852.4,654.3v110.1H750.6V654.3H512.5v-98.1l205.2-320.5h134.8v336.2h65.2v82.4H852.4z M750.6,328.5h-1.5,c-2.2,9-17.2,41.2-38.2,74.1L603.1,571.9h147.5V328.5z"/></svg>