<svg xmlns="http://www.w3.org/2000/svg" width="1000" height="1000"><path fill="#489244" d="M882,999H118.2c-64.3,0-117-52.7-117-117V118.2c0-64.3,52.7-117,117-117H882c64.3,0,117,52.7,117,117V882,C999,946.3,946.3,999,882,999z"/><path fill="#FEFEFE" d="M293.8,764.3H173.2c0-69.6,18.7-114.6,65.2-200.7L367.2,324H110.3v-88.4h369.9v86.1,C364.2,523.2,293.8,681.2,293.8,764.3z"/><path fill="#FEFEFE" d="M685.4,764.3V348.7c-18,14.2-71.1,41.9-90.6,51.7l-27.7,14.2l-35.9-80.9l32.2-15,c61.4-28.5,118.3-64.4,142.3-83.1h92.1v528.7H685.4z"/></svg>