<svg xmlns="http://www.w3.org/2000/svg" width="1000" height="1000"><path fill="#FEEA05" d="M882,999H118.2c-64.3,0-117-52.7-117-117V118.2c0-64.3,52.7-117,117-117H882c64.3,0,117,52.7,117,117V882,C999,946.3,946.3,999,882,999z"/><path d="M293.8,764.3H173.2c0-69.6,18.7-114.6,65.2-200.7L367.2,324H110.3v-88.4h369.9v86.1C364.2,523.2,293.8,681.2,293.8,764.3z"/><path d="M724.4,776.3c-142.3,0-193.2-99.6-193.2-239.6c0-183.5,84.6-309.3,250.9-309.3c30,0,56.9,3.7,78.6,9l-16.5,89.9,c-14.2-6-41.2-12.7-71.1-12.7c-72.6,0-127.3,53.2-134,159.5c18-15.7,51.7-35.9,107.8-35.9c86.1,0,156.5,57.7,156.5,156.5,C903.4,699.2,833,776.3,724.4,776.3z M714.6,520.2c-32.2,0-58.4,12.7-68.9,29.2c-6,9-6,29.2-6,44.9c0,50.2,28.5,98.9,80.9,98.9,c50.9,0,77.1-42.7,77.1-88.4C797.8,555.4,765.6,520.2,714.6,520.2z"/></svg>