<svg xmlns="http://www.w3.org/2000/svg" width="1000" height="1000"><path fill="#F1B2CB" d="M882,999H118.2c-64.3,0-117-52.7-117-117V118.2c0-64.3,52.7-117,117-117H882c64.3,0,117,52.7,117,117V882,C999,946.3,946.3,999,882,999z"/><path d="M293.8,764.3H173.2c0-69.6,18.7-114.6,65.2-200.7L367.2,324H110.3v-88.4h369.9v86.1C364.2,523.2,293.8,681.2,293.8,764.3z"/><path d="M542.4,764.3v-69.6c13.5-61.4,74.1-115.3,144.5-176.7c35.2-30.7,73.4-67.4,73.4-118.3c0-45.7-30-82.4-87.6-82.4,c-46.4,0-78.6,33.7-91.4,47.9l-55.4-73.4c50.9-44.2,98.1-65.2,169.2-65.2c92.9,0,180.5,52.4,180.5,160.3,c0,90.6-57.7,131.8-121.3,189.5c-27,24.7-80.1,68.9-86.9,99.6h217.9v88.4H542.4z"/></svg>