<svg xmlns="http://www.w3.org/2000/svg" width="1000" height="1000"><path fill="#489244" d="M882,999H118.2c-64.3,0-117-52.7-117-117V118.2c0-64.3,52.7-117,117-117H882c64.3,0,117,52.7,117,117V882,C999,946.3,946.3,999,882,999z"/><path fill="#FEFEFE" d="M292.3,776.3c-117.6,0-184.2-70.4-184.2-150.5c0-70.4,39.7-111.6,90.6-137.8,c-45.7-28.5-74.1-60.7-74.1-115.3c0-87.6,79.4-148.3,170-148.3c92.9,0,170,45.7,170,136.3c0,49.4-25.5,87.6-74.9,117.6,c48.7,23.2,91.4,65.2,91.4,134.8C481,713.4,400.9,776.3,292.3,776.3z M283.3,524.7c-34.4,13.5-68.9,47.9-68.9,89.1,c0,43.4,28.5,84.6,79.4,84.6c50.2,0,77.9-35.2,77.9-77.1C371.7,573.4,328.2,547.2,283.3,524.7z M296,300.8,c-41.2,0-67.4,25.5-67.4,62.2c0,43.4,43.4,66.6,77.1,80.9c27.7-12.7,57.7-43.4,57.7-76.4C363.4,330.7,339.5,300.8,296,300.8z"/><path fill="#FEFEFE" d="M713.1,764.3H592.6c0-69.6,18.7-114.6,65.2-200.7L786.5,324H529.7v-88.4h369.9v86.1,C783.5,523.2,713.1,681.2,713.1,764.3z"/></svg>