<svg xmlns="http://www.w3.org/2000/svg" width="1000" height="1000"><path fill="#EB7F3C" d="M882,999H118.2c-64.3,0-117-52.7-117-117V118.2c0-64.3,52.7-117,117-117H882c64.3,0,117,52.7,117,117V882,C999,946.3,946.3,999,882,999z"/><path fill="#FEFEFE" d="M230.1,773.3c-30,0-56.9-3.7-78.6-9l16.5-89.9c14.2,6,41.2,12.7,71.1,12.7c72.6,0,127.3-53.2,134-159.5,c-18,15.7-51.7,35.9-107.8,35.9c-86.1,0-156.5-57.7-156.5-156.5c0-105.6,70.4-182.7,179-182.7C430.1,224.4,481,324,481,464,C481,647.5,396.4,773.3,230.1,773.3z M291.5,307.5c-50.9,0-77.1,42.7-77.1,88.4c0,49.4,32.2,84.6,83.1,84.6,c32.2,0,58.4-12.7,68.9-29.2c6-9,6-29.2,6-44.9C372.4,356.2,344,307.5,291.5,307.5z"/><path fill="#FEFEFE" d="M711.6,776.3c-117.6,0-184.2-70.4-184.2-150.5c0-70.4,39.7-111.6,90.6-137.8,c-45.7-28.5-74.1-60.7-74.1-115.3c0-87.6,79.4-148.3,170-148.3c92.9,0,170,45.7,170,136.3c0,49.4-25.5,87.6-74.9,117.6,c48.7,23.2,91.4,65.2,91.4,134.8C900.4,713.4,820.2,776.3,711.6,776.3z M702.7,524.7c-34.4,13.5-68.9,47.9-68.9,89.1,c0,43.4,28.5,84.6,79.4,84.6c50.2,0,77.9-35.2,77.9-77.1C791,573.4,747.6,547.2,702.7,524.7z M715.4,300.8,c-41.2,0-67.4,25.5-67.4,62.2c0,43.4,43.4,66.6,77.1,80.9c27.7-12.7,57.7-43.4,57.7-76.4C782.8,330.7,758.8,300.8,715.4,300.8z"/></svg>