<svg xmlns="http://www.w3.org/2000/svg" width="1000" height="1000"><path fill="#1D518D" d="M882,999H118.2c-64.3,0-117-52.7-117-117V118.2c0-64.3,52.7-117,117-117H882c64.3,0,117,52.7,117,117V882,C999,946.3,946.3,999,882,999z"/><path fill="#FEFEFE" d="M230.1,773.3c-30,0-56.9-3.7-78.6-9l16.5-89.9c14.2,6,41.2,12.7,71.1,12.7c72.6,0,127.3-53.2,134-159.5,c-18,15.7-51.7,35.9-107.8,35.9c-86.1,0-156.5-57.7-156.5-156.5c0-105.6,70.4-182.7,179-182.7C430.1,224.4,481,324,481,464,C481,647.5,396.4,773.3,230.1,773.3z M291.5,307.5c-50.9,0-77.1,42.7-77.1,88.4c0,49.4,32.2,84.6,83.1,84.6,c32.2,0,58.4-12.7,68.9-29.2c6-9,6-29.2,6-44.9C372.4,356.2,344,307.5,291.5,307.5z"/><path fill="#FEFEFE" d="M685.4,774.8c-56.2,0-104.1-15-145.3-38.2l38.9-82.4c25.5,17.2,55.4,33.7,100.3,33.7,c41.2,0,92.9-23.2,92.9-85.4c0-38.2-25.5-90.6-122.8-91.4l-82.4-0.7l21-274.8h277.8v87.6H675.7l-7.5,101.1l15,0.7,c144.5,7.5,202.9,87.6,202.9,167C886.1,693.2,806,774.8,685.4,774.8z"/></svg>