<svg xmlns="http://www.w3.org/2000/svg" width="1000" height="1000"><path fill="#FEFEFE" d="M882,999H118.2c-64.3,0-117-52.7-117-117V118.2c0-64.3,52.7-117,117-117H882c64.3,0,117,52.7,117,117V882,C999,946.3,946.3,999,882,999z"/><path fill="#0070BD" d="M340.2,131.9c0-6.7-0.4-10.4-4.4-14.1c-2.1-2.1-4.6-3.5-7.1-4l-7.2,34.4h18.7V131.9z M766.2,149.7,c3.9-3.8,4.8-8.6,4.8-11.8l-0.5-3.7l-34.8-7.4v27.1H752C759.2,153.9,762.7,153.4,766.2,149.7 M373.9,109.4c-8.1,0-15,4.8-16.8,11,c-0.9,2.7-0.9,5.3-0.9,10.6v16.9h36.6v-17.3C392.9,115.8,384.6,109.4,373.9,109.4 M752.8,169.8H736v36.9h17.7,c14.6,0,21-8.5,21-18.8c0-8.3-4.7-15.1-10.9-16.8C760.8,170.1,758.4,169.8,752.8,169.8 M382,231.2v-0.6c0,0-7.1-1.4-24.4-6.9,l-49.1-16L298,256.3l60.4-19.2C373.4,232.5,382,231.2,382,231.2 M790.9,138.8c-1.1,10.4-8.3,18.4-19.4,21.6,c19,4.7,24.4,17.7,24.4,29.5c0,22.9-16.2,32.8-45.6,32.8H717v-99.9l-26.7-5.9v105.8h-20V112.6l-13.6-2.8l-2.1,13.1h-29.3v99.9h-19,v-99.9h-29.3v-16h66.2L344.2,42.3l-11.1,53.2c6.3,2.9,11.1,8.8,13.6,17.4C351.6,93.6,364.6,88,376,88c23,0,33.1,16,33.1,45.5v33.6,h-91.8l-4.4,21.9l96.5,33.1v17.8L293.3,279L167.5,860.6h519.7l153.5-711.1L790.9,138.8z M409,359.1l-72.2,5.4,c-7,0.8-15.7,0.8-19.6,0.8c3.9,0.8,10.7,2.3,17.8,4.5l73.9,21.4v16.3l-70.4,19.2c-7.8,2.2-17.6,4.2-21.4,5.1,c3.8,0,14.2,0.8,21.8,1.3l70,4.5v19.3l-116.3-10.6v-25.7l65.7-17.7c9.9-2.5,16.1-3.6,19.3-4.2c-3.2-0.7-10.7-2.1-19.1-4.5,l-65.9-17.8v-25.9l116.3-9.9V359.1z M409,313.1H292.7v-19.5H409V313.1z M525.6,224.7c-13.1,0-26.7-3.7-38.2-10.3l7.2-14.8,c10.7,6.2,20.1,9.4,31.5,9.4c14.5,0,23-6.6,23-18.2c0-8.8-5.5-13.9-17.3-17.3l-12.6-3.8c-10.5-2.7-18-7.6-21.9-13.7,c-3.1-4.8-5.4-10.1-5.4-17c0-20.3,16.2-34.4,39.6-34.4c13,0,26.1,4.2,36.7,11.2l-8.8,13.7c-10.8-6.4-18.1-8.9-27.3-8.9,c-11.3,0-18.9,6.2-18.9,15.5c0,7.5,4,11,15,14.5l13.8,4.1c17.1,4.7,28.5,15.4,28.5,33C570.7,206.9,555.3,224.7,525.6,224.7"/><polygon fill="#E64748" points="167.5,860.6 663.9,967.7 687.1,860.6"/></svg>