<svg xmlns="http://www.w3.org/2000/svg" width="1000" height="1000"><rect x="1.2" y="1.2" fill="#E44647" width="997.8" height="997.8"/><path fill="#FEFEFE" d="M177.1,591.3h-71.2c-6,0-7.2-1.8-7.2-6.5V417.9c0-5.7-0.3-8.7,6.3-8.7h62.8c46,0,68.4,15,68.4,46,c0,22.9-10.2,37.3-25,44.3c12.7,5.3,28,15.2,28,45C239.2,575.2,219.2,591.3,177.1,591.3 M163.3,439.5h-16.1,c-3.8,0-4.6,2.5-4.6,4.5v33.3c0,3.5,1,4.7,5,4.7h16.7c16,0,26-4.7,26-21.4C190.3,443.8,179.8,439.5,163.3,439.5 M164.8,516.9,h-16.7c-4,0-5,1.2-5,4.7v34.6c0,2,0.7,4.4,4.5,4.4h16.3c17.2,0,29.4-4,29.4-20.9C193.3,522.4,180,516.9,164.8,516.9"/><path fill="#FEFEFE" d="M729.7,591.3h-30.4c-7,0-9.5-1.5-9.5-7.7V416.2c0-5.7,1.4-7,9-7h31.7c5.5,0,6.5,2.2,6.5,7.9v168,C737,589.8,735.4,591.3,729.7,591.3"/><path fill="#FEFEFE" d="M901.7,591.3h-35.4c-4.9,0-6.2-0.8-10-5.8l-50.6-70.1l-8,8.7v60.7c0,4.8-1.3,6.5-7.3,6.5h-29.9,c-7.5,0-9.9-1.8-9.9-8.2v-166c0-6.5,2.9-7.9,9.9-7.9h30.7c6.5,0,6.5,2.2,6.5,7.9v54.3l50.9-55.8c6.2-6.5,5.7-6.5,10.5-6.5h34.2,c7.2,0,12.9,0.3,6.2,7.2l-63.9,69l71.6,98.5C911.9,590.3,908.2,591.3,901.7,591.3"/><path fill="#FEFEFE" d="M666.8,410.5H547c-6.2,0-9.5,0.7-9.5,5.5v17.7c-11.8-12.5-29.6-19.8-48.3-23.9,c-46.2-10.2-72.6,2.6-82.4,46.7l-12.9,58.6v-43.9c0-50-37.1-63.4-75.1-63.4c-46.7,0-69.4,17.9-69.4,62.5v71.7,c0,51.2,47.9,54,71.9,54c18.7,0,59.9,0,70.2-39.5c8.4,27.3,40.6,36.1,59,40.2c21.3,4.7,71.9,15.8,85-43.3l14.2-64.3,c4-18.2,2-32.5-4-43.9h34.5c4.5,0,5.8,0.8,5.8,4.8v134.6c0,7.2,2,8.2,10,8.2h27.5c7.3,0,9.7-1.8,9.7-8.2V449.8,c0-4,1.3-4.8,5.7-4.8H670c6,0,6.2-2.1,6.2-5.2v-24.1C676.3,411,672.8,410.5,666.8,410.5 M346.5,525.9c0,22.2-8.7,31.2-25.4,31.2,c-12.5,0-25.7-8.5-25.7-28.7v-53.7c0-14.7,4.7-28.9,26.3-28.9c16.4,0,24.9,10.9,24.9,28.9V525.9z"/><polygon fill="#E75639" points="492.7,546.4 430.1,546.3 489.9,559.3"/><path fill="#1B76C0" d="M450.9,458.5l-0.5-1.7l-0.8-0.5l-0.9,4.1h2.3V458.5z M502.2,460.7l0.6-1.4l-0.1-0.5l-4.2-0.9v3.3h1.9,L502.2,460.7 M454.9,455.8l-2,1.3l-0.1,1.3v2h4.4v-2.1L454.9,455.8 M500.6,463.1h-2v4.4h2.1l2.5-2.3l-1.3-2L500.6,463.1,M455.9,470.5L455.9,470.5l-2.9-0.9l-5.9-2l-1.3,5.9l7.3-2.3L455.9,470.5 M505.2,459.4l-2.3,2.6l2.9,3.5c0,2.8-1.9,4-5.5,4h-4v-12,l-3.2-0.7v12.7h-2.4v-13.3l-1.6-0.3l-0.3,1.6h-3.5v12h-2.3v-12h-3.5v-1.9h8l-36-7.7l-1.3,6.4l1.6,2.1l3.5-3c2.8,0,4,1.9,4,5.5v4,h-11.1l-0.5,2.7l11.6,4v2.1l-14,4.7l-15.2,70.1l62.6,0l18.5-85.7L505.2,459.4z M459.2,485.9l-8.7,0.6l-2.3,0.1l2.1,0.5l8.9,2.6v2,l-8.5,2.3l-2.6,0.6l2.6,0.2l8.5,0.5v2.3l-14-1.3v-3.1l7.9-2.1l2.3-0.5l-2.3-0.5l-7.9-2.1v-3.1l14-1.2V485.9z M459.2,480.4h-14V478,h14V480.4z M473.2,469.7l-4.6-1.2l0.9-1.8l3.8,1.1l2.8-2.2l-2.1-2.1l-1.5-0.5l-2.7-1.7l-0.7-2c0-2.5,2-4.2,4.8-4.2l4.4,1.4l-1,1.6,l-3.3-1.1l-2.3,1.9l1.8,1.8l1.7,0.5l3.4,4C478.7,467.6,476.8,469.7,473.2,469.7"/></svg>