<svg xmlns="http://www.w3.org/2000/svg" width="1000" height="1000"><rect x="1.2" y="1.2" fill="#E44647" width="997.8" height="997.8"/><path fill="#FEFEFE" d="M675,331.9c-85-18.7-133.6,4.8-151.6,85.9L497.7,535v-36.3c0-15.7-2.5-19.1-22-19.1H368.9,c-6.8,0-6.8,5.2-6.8,9.8v36.8c0,8.8,2.9,9.8,9.8,9.8h29.1c8.8,0.5,9.3,5.1,9.3,10.2V581c0,24.1-11.2,38.1-44.9,38.1,c-39,0-51.7-20.9-51.7-65.1v-87.4c0-60,34.1-70.3,76.5-70.3c39.4,0,55.6,7,67.2,12.2c7.8,3.2,27.8-52.6,22.4-57.7,c-6.3-6.1-33.7-21.5-97.5-21.5c-133.5,0-162.7,60.1-162.7,130.3v104.2c0,64.2,35.5,117.1,147.6,117.1c93.5,0,120.9-37.8,128-78.9,c15.6,50,74.6,66.2,108.4,73.6c39.2,8.6,132.3,29.1,156.4-79.7l26.2-118.3C806.6,386.4,744.1,347.1,675,331.9"/><polygon fill="#E75639" points="681.4,583.3 566.2,583.2 676.3,607"/><path fill="#1B76C0" d="M604.5,421.6l-1-3.1l-1.6-0.9l-1.6,7.6h4.1V421.6z M699,425.6l1-2.6l-0.1-0.8l-7.7-1.6v6h3.6L699,425.6,M612,416.6l-3.7,2.4l-0.2,2.3v3.7h8.1v-3.8C616.2,418.1,614.4,416.6,612,416.6 M696,430h-3.7v8.2h3.9c3.2,0,4.6-1.9,4.6-4.1,l-2.4-3.7L696,430 M613.8,443.6v-0.1c0,0-1.6-0.3-5.4-1.5l-10.9-3.6l-2.3,10.8l13.4-4.3C611.9,443.9,613.8,443.6,613.8,443.6,M704.4,423.2l-4.3,4.8c4.2,1,5.4,3.9,5.4,6.5c0,5.1-3.6,7.3-10.1,7.3h-7.4v-22.2l-5.9-1.3v23.5h-4.5v-24.4l-3-0.6l-0.5,2.9h-6.5,v22.2h-4.2v-22.2H657V416h14.7l-66.3-14.3l-2.4,11.8l3,3.8c1.1-4.3,4-5.5,6.5-5.5c5.1,0,7.4,3.5,7.4,10.1v7.4h-20.4l-1,4.9,l21.4,7.3v3.9l-25.8,8.7l-27.9,128.9l115.2,0.1l34-157.7L704.4,423.2z M619.8,472l-16,1.2l-4.3,0.2l4,1l16.4,4.8v3.6l-15.6,4.3,l-4.7,1.1l4.8,0.3l15.6,1v4.3l-25.8-2.4v-5.7l14.6-3.9l4.3-1l-4.2-1l-14.6-3.9V470l25.8-2.2V472z M619.8,461.8H594v-4.3h25.8,V461.8z M645.6,442.2c-2.9,0-5.9-0.8-8.5-2.3l1.6-3.3l7,2.1c3.2,0,5.1-1.5,5.1-4l-3.8-3.9l-2.8-0.8l-4.9-3l-1.2-3.8,c0-4.5,3.6-7.6,8.8-7.6c2.9,0,5.8,0.9,8.1,2.5l-1.9,3l-6.1-2l-4.2,3.4l3.4,3.2l3,0.9c3.8,1,6.3,3.4,6.3,7.3,C655.6,438.3,652.2,442.2,645.6,442.2"/></svg>