<svg xmlns="http://www.w3.org/2000/svg" width="1000" height="1000"><rect x="1.2" y="1.2" fill="#E44647" width="997.8" height="997.8"/><path fill="#FEFEFE" d="M720.5,470.7c-0.4,2.9-1,5.9-1.6,9L700,565.3c-17.4,78.6-84.7,63.8-113,57.6c-24-5.2-65.7-16.6-77.8-51.5,v-45.3l19.7-89.5c13-58.6,48.1-75.7,109.6-62.1c34.2,7.5,66.2,23.3,78.2,53.7L720.5,470.7z"/><path fill="#FEFEFE" d="M98.1,469.4c12.6,29,44.1,42.2,71,52.7c25.5,9.7,37.1,18.4,37.1,31.8c0,17.1-18.2,23-45.1,23,c-38.2,0-56.4-9.1-66.5-10.3c-6.9-0.8-9.9,47.1-5.8,50.3c8.6,6.9,36.7,14.4,83.6,14.4c48.1,0,108.1-12.1,108.1-76.7,c0-46.4-41.1-71-80.8-87.3c-23.7-9.5-36.3-17-36.3-29.2c0-12.8,10.2-19.8,37-19.8c15.3,0,39.7,4.9,51.7,7.6,c10.2,2.5,20.4-46.8,12.1-49.6c-5.1-1.7-20.8-7.6-68.8-7.6c-55.9,0-93.2,20.3-101.3,56.6C94.1,425.4,88.3,449.3,98.1,469.4"/><path fill="#FEFEFE" d="M815.9,369.6h-90.1c-9.3,0-9,4.2-9,12.5v239.4c0,6.8,1.8,9.4,10.4,9.4h46.4l0.5-0.1c2.9,0,6.4-1.1,6.3-6.4,l0.1-43.8v-49.6c0-5,1.4-6.8,7.1-6.8h28c67.8,0,98.4-35.1,98.4-80.7C914,398.9,883.7,369.6,815.9,369.6 M810.9,474.2h-24,c-5.6,0-7.1-1.8-7.1-6.8v-47.8c0-2.9,1.1-6.4,6.5-6.4h23.2c23.7,0,38.7,6,38.7,30.3C848.2,467.4,833.8,474.2,810.9,474.2"/><path fill="#FEFEFE" d="M362.4,622.2c0,6.8-2.2,9-10.4,9h-43.8c-10.1,0-13.7-2.2-13.7-11.1V378.6c0-8.2,2.1-10,12.9-10H353,c7.9,0,9.4,3.2,9.4,11.5v81.7c0,5,1.5,6.8,7.2,6.8h65.6c5,0,6.8-1.5,6.8-7.2v-82.7c0-8.2,2.1-10,12.9-10h45.7,c7.9,0,9.4,3.2,9.4,11.5v242.2c0,6.8-2.2,9-10.4,9h-43.8c-10.1,0-13.7-2.2-13.7-11.1v-84.2c0-5-1.5-6.8-7.2-6.8h-65.6,c-5,0-6.8,1.5-6.8,7.2V622.2z"/><polygon fill="#E75639" points="644,556.5 560.4,556.5 640.2,573.7"/><path fill="#1B76C0" d="M588.2,439.3l-0.7-2.3l-1.1-0.6l-1.2,5.5h3V439.3z M656.7,442.2l0.8-1.9l-0.1-0.6l-5.6-1.2v4.3h2.6,L656.7,442.2 M593.6,435.7l-2.7,1.8l-0.2,1.7v2.7h5.9v-2.8L593.6,435.7 M654.5,445.4h-2.7v5.9h2.9l3.4-3l-1.7-2.7L654.5,445.4,M594.9,455.3v-0.1l-3.9-1.1l-7.9-2.6l-1.7,7.8l9.7-3.1L594.9,455.3 M660.6,440.4l-3.1,3.5l3.9,4.7c0,3.7-2.6,5.3-7.3,5.3h-5.4,v-16.1l-4.3-0.9v17h-3.2v-17.7l-2.2-0.5l-0.3,2.1H634v16.1h-3.1v-16.1h-4.7v-2.6h10.6l-48.1-10.3l-1.8,8.5l2.2,2.8l4.7-4,c3.7,0,5.4,2.6,5.4,7.3v5.4h-14.8l-0.7,3.5l15.5,5.3v2.9l-18.7,6.3l-20.3,93.5l83.6,0l24.7-114.4L660.6,440.4z M599.3,475.9,l-11.7,0.9l-3.1,0.1l2.9,0.7l11.9,3.5v2.6l-11.4,3.1l-3.4,0.8l3.5,0.2l11.3,0.7v3.1l-18.7-1.7v-4.1l10.6-2.9l3.1-0.7l-3.1-0.7,l-10.6-2.9v-4.2l18.7-1.6V475.9z M599.3,468.5h-18.7v-3.1h18.7V468.5z M618,454.2l-6.1-1.7l1.2-2.4l5.1,1.5l3.7-2.9l-2.8-2.8,l-2-0.6l-3.5-2.2l-0.9-2.7c0-3.3,2.6-5.5,6.4-5.5l5.9,1.8l-1.4,2.2l-4.4-1.4l-3,2.5l2.4,2.3l2.2,0.6l4.6,5.3,C625.2,451.4,622.8,454.2,618,454.2"/></svg>