<svg xmlns="http://www.w3.org/2000/svg" width="1000" height="1000"><path fill="#FEFEFE" d="M882,999H118.2c-64.3,0-117-52.7-117-117V118.2c0-64.3,52.7-117,117-117H882c64.3,0,117,52.7,117,117V882,C999,946.3,946.3,999,882,999z"/><polygon fill="#F7DA1E" points="43.4,472 687.4,472 674.9,546.5 19.5,546.5"/><polygon fill="#E02D2F" points="121.7,342.3 308.3,342.3 298,404 239,404 188,663.3 121,663.3 170.7,403.3 110.3,403.3"/><polyline fill="#E02D2F" points="328.9,342.3 508.9,342.3 497.3,404.2 384.5,404.2 345.4,603 458.6,603 448,663.5 266.5,663.5"/><polygon fill="#E02D2F" points="406.7,448.3 468,448.3 454.3,525 387.7,525"/><path fill="#E02D2F" d="M805.2,386.2c54.1,66.4,33.3,173-46.5,238s-188.3,63.9-242.5-2.5c-54.1-66.4-33.3-173,46.5-238,S751,319.8,805.2,386.2z M599.2,428.4C549,469.2,536,536.1,570,577.9c34,41.7,102.2,42.4,152.3,1.6s63.2-107.8,29.2-149.5,S649.3,387.6,599.2,428.4z"/><path fill="#FEFEFE" d="M758.5,440.1l52.1-46.8c0,0,138.9,115.7-41.8,222.2c-38.6-43,0,0-38.6-43C743,551,757.9,455.1,758.5,440.1z"/><polygon fill="#F7DA1E" points="645.5,472 982,472 975.5,546.5 633,546.5"/></svg>