<svg xmlns="http://www.w3.org/2000/svg" width="1000" height="1000"><path fill="#274986" d="M882,999H118.2c-64.3,0-117-52.7-117-117V118.2c0-64.3,52.7-117,117-117H882c64.3,0,117,52.7,117,117V882,C999,946.3,946.3,999,882,999z"/><path fill-rule="evenodd" clip-rule="evenodd" fill="#FEFEFE" d="M865.6,686.4c-28.1,0-51.3-23.1-51.3-51.2,c0-28.1,23.1-50.3,51.3-50.3c27.1,0,50.2,22.1,50.2,50.3C915.8,663.3,892.7,686.4,865.6,686.4 M702.9,401.2l-15.1-173.8h145.6,c12.1,0,22.1,8.1,27.2,19.1c17,44.2,34.1,102.4,41.1,148.7l-10,6H702.9 M529.1,686.4c-28.1,0-50.2-23.1-50.2-51.2,c0-28.1,22-50.3,50.2-50.3c28.1,0,51.3,22.1,51.3,50.3C580.4,663.3,557.3,686.4,529.1,686.4 M462.8,384l-1-121.5,c3.1-18,17.1-33.2,35.1-35.1h157.7l14.1,173.8H479.9L462.8,384 M667.7,135c18.1,0,32.2,15.1,32.2,34.1c0,18.1-14.1,33.2-32.2,33.2,c-18.1,0-32.2-15.1-32.2-33.2C635.6,150.1,649.7,135,667.7,135 M58,620.1l1.1-32.1c127.5-49.2,238-140.6,315.3-254.1l1,128.6,C294.1,548.8,176.6,607.1,58,620.1 M953,661.3l1-208.9c0-85.4-19.1-169.8-50.2-255.1c-16.1-44.2-56.3-78.3-100.4-88.4,c-47.2-7-107.4-13-157.7-13c-44.2,0-97.4,3-137.6,10c-61.3,9.1-115.5,51.2-136.7,110.5C306.2,362,180.6,489.5,34,558.9l1,110.5,c23-3,53.2-7.1,78.3-7.1c48.2,0,100.5,9.1,145.6,24.1c58.2,19.1,114.5,53.2,156.7,95.4c20.1,24.1,49.2,39.2,80.3,40.1l28.1,94.5,h74.3L565.3,821H729l98.5,82.4h106.5L806.4,820C886.7,807.9,948.9,741.7,953,661.3"/></svg>