<svg xmlns="http://www.w3.org/2000/svg" width="1000" height="1000"><path fill="#FEFEFE" d="M882,999H118.2c-64.3,0-117-52.7-117-117V118.2c0-64.3,52.7-117,117-117H882c64.3,0,117,52.7,117,117V882,C999,946.3,946.3,999,882,999z"/><path fill="#576166" d="M288.8,306.5l-4.7,26h20.4c1.6,0,4.1,0,6.2-0.4c4.3-0.9,8.6-3.9,10.2-12.9c1.3-7-1.9-10.7-4.4-11.8,c-2.1-0.9-5.6-0.9-7.6-0.9H288.8z M325.9,306.5l-4.7,26h21.1l1.3-6.9h-8.4l0.4-4h4.9l0.9-4.9h-4.9l0.9-3.6h8.4l1.1-6.7H325.9zM300.3,313.2h1.8c0,0,2.1,0,3.6,0.4c1.3,0.4,2.8,2.2,2.2,5.6c-0.7,4.2-2.9,5.8-4.9,6.2c-1,0.2-3.1,0.2-3.1,0.2h-1.8L300.3,313.2,L300.3,313.2z M191.4,349.9l-18.2,103.6h89.6l4.4-25.6H235l13.8-78H191.4z M281,349.9l-12.7,72.5h58.2l12.9-72.5H281z M355.7,349.9,l-12.2,70.2c-1,5.9-3.4,7.8-7.8,7.8h-10l-4.4,25.6h40.7c22.1,0,34.7-11.7,39.3-38.2l11.6-65.3H355.7z M431.5,349.9L413,453.4h53.1,l8.2-46.2l17.8,46.2h55.8l18.4-103.6h-56l-8.2,46.5l-17.6-46.5H431.5z"/><path fill="#FAD615" d="M414.8,38.5l-48.4,250.8l420.9,0l48.5-250.8L414.8,38.5z"/><path fill="#FAD615" d="M669.7,956.5l85.7-485.8H334.4l-85.6,485.8H669.7z"/><path fill="#274A8D" d="M573.9,306.6h-78.5l-4.6,25.9h78.5L573.9,306.6z"/><path fill="#274A8D" d="M491.9,306.6H363.4l-4.6,25.9h128.5L491.9,306.6z"/><path fill="#274A8D" d="M624.1,306.6h-46.5l-4.6,25.9h46.5L624.1,306.6z"/><path fill="#274A8D" d="M655.7,306.6h-27.4l-4.6,25.9h27.4L655.7,306.6z"/><path fill="#274A8D" d="M677.4,306.6h-16.9l-4.6,25.9h16.9L677.4,306.6z"/><path fill="#274A8D" d="M693.4,306.6H683l-4.6,25.9h10.4L693.4,306.6z"/><path fill="#274A8D" d="M705.8,306.6h-6l-4.6,25.9h6L705.8,306.6z"/><path fill="#274A8D" d="M718.2,306.6h-4.7l-4.6,25.9h4.6L718.2,306.6z"/><path fill="#274A8D" d="M729,306.6h-2.9l-4.6,25.9h2.9L729,306.6z"/><path fill="#274A8D" d="M741.1,306.6h-2.2l-4.6,25.9h2.2L741.1,306.6z"/><path fill="#274A8D" d="M753.8,306.6h-2l-4.6,25.9h2L753.8,306.6z"/><path fill="#274A8D" d="M767.9,306.6h-1.6l-4.6,25.9h1.6L767.9,306.6z"/><path fill="#274A8D" d="M784.3,306.6h-1.2l-4.6,25.9h1.2L784.3,306.6z"/></svg>