<svg xmlns="http://www.w3.org/2000/svg" width="1000" height="1000"><path fill="#FEFEFE" d="M882,999H118.2c-64.3,0-117-52.7-117-117V118.2c0-64.3,52.7-117,117-117H882c64.3,0,117,52.7,117,117V882,C999,946.3,946.3,999,882,999z"/><path id="path15" fill="#2A4482" d="M508.4,228.8c-241.3,0-436,134.5-436,273.9c0,133.8,162.7,278.9,436,279.8,c264.6,1.6,427.3-153.3,427.3-273.2C934.9,360,747.3,228.8,508.4,228.8L508.4,228.8z"/><path id="path17" fill="#FEFEFE" d="M510,249.2c-146.7,0-364,93.7-364.9,254.4c0,164.7,210.9,258.5,368.1,258.5,c157.1,0,352.7-84.8,352.7-250.3C865.9,324.2,653.5,249.2,510,249.2L510,249.2z"/><path id="path19" fill="#2A4482" d="M313.6,400.8c-4.8-8.2-4.8-12.1,6.4-19.5c10.4-7.3,70.5-55.5,165.9-55.5,c95.4,0,143.6,33.4,157.2,43.2c13.6,10.6,37.7,41.6,37.7,68.5c-0.9,27.7-32.9,49-41,53c-8,4.1-14.4,6.5,0.9,12.1,c16,5.7,64.9,18.8,64.9,75.9c0,56.2-31.3,75.8-69.7,93c-39.2,17.1-87.4,27.7-137.9,27.7c-50.5,0-110.6-14.7-138.7-30.2,c-28.1-15.4-41.7-25.3-44.9-30.1c-3.2-5-7.2-8.2-0.8-15.5c6.4-6.5,6.4-6.5,10.4-10.6c4-3.3,6.4-4.1,10.4-0.8,c4.8,3.3,9.6,8.2,9.6,8.2s8.8,1.6,8.8-8.2c0-12.2,0-194.1,0-194.1s0-8.2-7.3-5.6c-6.4,2.4-13.6,8.2-20.8,2.4,C317.6,409,317.6,408.2,313.6,400.8L313.6,400.8z"/><path id="path21" fill="#FEFEFE" d="M446.6,379.7v94.6c0,0-1.7,6.5,9.6,6.5c8,0,50.5-0.8,50.5-0.8s56.1,0,56.1-53.8,c0-54.6-65-57.9-65-57.9s-20-1.7-37.7,0C445.8,369.9,446.6,379.7,446.6,379.7L446.6,379.7z"/><path id="path23" fill="#FEFEFE" d="M447.4,538.7v97.8c0,0,0,19.6,30.5,19.6c29.7,0,53.7,3.3,78.6-9.8c24.1-13,35.2-17.1,35.2-59.5,c0-41.6-33.7-60.3-94.6-61.2c-16.8-0.8-29.7,0-36.9,0C446.6,526.5,447.4,538.7,447.4,538.7L447.4,538.7z"/></svg>