<svg xmlns="http://www.w3.org/2000/svg" width="1000" height="1000"><rect x="1.2" y="1.2" fill="#E44647" width="997.8" height="997.8"/><path fill="#FEFEFE" d="M288.3,611.3h-43.4c-6.1,0-7.7-0.9-12.2-6.7l-62-82.1l-9.7,10.2v71c0,5.5-1.5,7.6-8.9,7.6h-36.7,c-9.1,0-12.1-2.2-12.1-9.6V407.4c0-7.6,3.6-9.3,12.1-9.3h37.6c7.9,0,7.9,2.6,7.9,9.3v63.5l62.3-65.3c7.7-7.5,7.1-7.5,12.8-7.5,h41.9c8.9,0,15.9,0.3,7.6,8.3l-78.2,80.8l87.5,115.3C300.8,610.1,296.2,611.3,288.3,611.3"/><path fill="#FEFEFE" d="M899.4,611.3H856c-6.1,0-7.6-0.9-12.3-6.7l-61.9-82.1l-9.7,10.2v71c0,5.5-1.5,7.6-9,7.6h-36.6,c-9.2,0-12.3-2.2-12.3-9.6V407.4c0-7.6,3.7-9.3,12.3-9.3h37.6c7.9,0,7.9,2.6,7.9,9.3v63.5l62.2-65.3c7.7-7.5,7-7.5,12.8-7.5H889,c8.8,0,15.9,0.3,7.6,8.3l-78.2,80.8l87.6,115.3C911.9,610.1,907.2,611.3,899.4,611.3"/><path fill="#FEFEFE" d="M630.8,477.6c-19.9-7.9-30.5-14.3-30.5-24.5c0-10.8,8.6-16.6,31.1-16.6c12.8,0,33.3,4.1,43.4,6.3,c8.5,2.1,17.1-39.3,10.1-41.6c-4.3-1.4-17.4-6.4-57.7-6.4c-46.9,0-78.2,17-85,47.5c-10.4-26.4-38.2-40-67.9-46.6,c-53.3-11.7-83.8,3-95.1,53.9l-17.1,77.7v-120c0-6.7-1.3-9.3-8-9.3h-38.8c-9.1,0-10.9,1.5-10.9,8v196c0,7.3,3,9.1,11.5,9.1h37.3,c7,0,8.8-1.8,8.8-7.3v-37.3c10.5,30.2,46.7,40.1,67.5,44.7c24.6,5.4,83,18.3,98.1-50l16.4-74.2l1.4-7.8,c10.5,24.3,37,35.4,59.6,44.3c21.4,8.2,31.1,15.4,31.1,26.7c0,14.3-15.2,19.3-37.8,19.3c-32,0-47.3-7.6-55.8-8.7,c-5.8-0.6-8.3,39.6-4.9,42.2c7.3,5.8,30.8,12.1,70.1,12.1c40.4,0,90.7-10.1,90.7-64.4C698.6,512,664.1,491.3,630.8,477.6"/><polygon fill="#E75639" points="478.4,553.5 406.1,553.5 475.1,568.4"/><path fill="#1B76C0" d="M430.1,452.1l-0.6-2l-1-0.6l-1,4.8h2.6V452.1z M489.3,454.6l0.7-1.7l-0.1-0.5l-4.9-1v3.8h2.3L489.3,454.6,M434.8,449l-2.3,1.5l-0.1,1.5v2.3h5.1v-2.4L434.8,449 M487.5,457.4h-2.3v5.1h2.5l2.9-2.6l-1.5-2.3L487.5,457.4 M435.9,465.9,L435.9,465.9l-3.4-1l-6.8-2.2l-1.4,6.7l8.4-2.6L435.9,465.9 M492.8,453.1l-2.7,3l3.4,4.1c0,3.2-2.2,4.6-6.3,4.6h-4.7v-13.9,l-3.7-0.8v14.7H476v-15.3l-1.9-0.4l-0.3,1.8h-4.1v13.9h-2.6v-13.9H463v-2.2h9.2l-41.6-8.9l-1.5,7.4l1.9,2.4l4.1-3.5,c3.2,0,4.6,2.2,4.6,6.3v4.7h-12.8l-0.6,3l13.4,4.6v2.5l-16.2,5.4l-17.5,80.9l72.3,0l21.3-98.9L492.8,453.1z M439.7,483.7l-10,0.7,l-2.7,0.1l2.5,0.6l10.3,3v2.2l-9.8,2.7l-3,0.7l3,0.2l9.7,0.6v2.7l-16.2-1.5v-3.6l9.1-2.5l2.6-0.6l-2.6-0.6l-9.1-2.5v-3.6l16.2-1.4,V483.7z M439.7,477.3h-16.2v-2.7h16.2V477.3z M455.9,465l-5.3-1.4l1-2l4.4,1.3l3.2-2.5l-2.4-2.4l-1.8-0.5l-3-1.9l-0.7-2.4,c0-2.8,2.2-4.8,5.5-4.8l5.1,1.5l-1.2,1.9l-3.8-1.2l-2.6,2.2l2.1,2l1.9,0.6l4,4.6C462.2,462.6,460,465,455.9,465"/></svg>