<svg xmlns="http://www.w3.org/2000/svg" width="1000" height="1000"><path fill="#F8CD1B" d="M882,999H118.2c-64.3,0-117-52.7-117-117V118.2c0-64.3,52.7-117,117-117H882c64.3,0,117,52.7,117,117V882,C999,946.3,946.3,999,882,999z"/><path fill="#FEFEFE" d="M475.8,774.8c-56.2,0-104.1-15-145.3-38.2l38.9-82.4c25.5,17.2,55.4,33.7,100.3,33.7,c41.2,0,92.9-23.2,92.9-85.4c0-38.2-25.5-90.6-122.8-91.4l-82.4-0.7l21-274.8h277.8v87.6H466l-7.5,101.1l15,0.7,c144.5,7.5,202.9,87.6,202.9,167C676.5,693.2,596.3,774.8,475.8,774.8z"/></svg>