<svg xmlns="http://www.w3.org/2000/svg" width="1000" height="1000"><path fill="#C196C0" d="M882,999H118.2c-64.3,0-117-52.7-117-117V118.2c0-64.3,52.7-117,117-117H882c64.3,0,117,52.7,117,117V882,C999,946.3,946.3,999,882,999z"/><path fill="#FEFEFE" d="M457.1,745.3c-122.1,0-146.2-118.1-146.2-211.6c0-93.5,26.4-211.6,148.5-211.6s146.2,118.1,146.2,211.6,C605.6,627.2,579.2,745.3,457.1,745.3z M458.2,390.4c-58.5,0-60.2,102.1-60.2,143.4c0,40.7,2.9,143.9,60.2,143.9,s59.6-103.8,59.6-143.9C517.9,491.3,516.1,390.4,458.2,390.4z"/><path fill="#FEFEFE" d="M757.5,743c-43,0-79.7-11.5-111.2-29.2l29.8-63.1c19.5,13.2,42.4,25.8,76.8,25.8,c31.5,0,71.1-17.8,71.1-65.4c0-29.2-19.5-69.4-94-70l-63.1-0.6L683,330.2h212.7v67.1H750.1l-5.7,77.4l11.5,0.6,c110.7,5.7,155.4,67.1,155.4,127.9C911.2,680.5,849.9,743,757.5,743z"/><path fill="#FEFEFE" d="M235.7,735.2L135.4,595.5c-9.8-13.5-15.8-27.4-17.3-33h-0.8v172.8H62.9V470.1h53l94.6,136.7,c14.3,20.3,22.9,36.1,24.4,42.4h0.8V470.1h54.1v265.1H235.7z"/></svg>