<svg xmlns="http://www.w3.org/2000/svg" width="1000" height="1000"><path fill="#B0D1E9" d="M882,999H118.2c-64.3,0-117-52.7-117-117V118.2c0-64.3,52.7-117,117-117H882c64.3,0,117,52.7,117,117V882,C999,946.3,946.3,999,882,999z"/><path d="M457.1,745.3c-122.1,0-146.2-118.1-146.2-211.6c0-93.5,26.4-211.6,148.5-211.6s146.2,118.1,146.2,211.6,C605.6,627.2,579.2,745.3,457.1,745.3z M458.2,390.4c-58.5,0-60.2,102.1-60.2,143.4c0,40.7,2.9,143.9,60.2,143.9,s59.6-103.8,59.6-143.9C517.9,491.3,516.1,390.4,458.2,390.4z"/><path d="M777.6,744.2c-90,0-141.1-53.9-141.1-115.3c0-53.9,30.4-85.4,69.4-105.5c-35-21.8-56.8-46.4-56.8-88.3,c0-67.1,60.8-113.5,130.2-113.5c71.1,0,130.2,35,130.2,104.4c0,37.8-19.5,67.1-57.3,90c37.3,17.8,70,49.9,70,103.2,C922.1,696,860.8,744.2,777.6,744.2z M770.7,551.5c-26.4,10.3-52.8,36.7-52.8,68.2c0,33.3,21.8,64.8,60.8,64.8,c38.4,0,59.6-27,59.6-59.1C838.4,588.8,805.1,568.7,770.7,551.5z M780.5,380.1c-31.5,0-51.6,19.5-51.6,47.6,c0,33.3,33.3,51,59.1,61.9c21.2-9.7,44.2-33.3,44.2-58.5C832.1,403,813.7,380.1,780.5,380.1z"/><path d="M235.7,735.2L135.4,595.5c-9.8-13.5-15.8-27.4-17.3-33h-0.8v172.8H62.9V470.1h53l94.6,136.7,c14.3,20.3,22.9,36.1,24.4,42.4h0.8V470.1h54.1v265.1H235.7z"/></svg>