<svg xmlns="http://www.w3.org/2000/svg" width="1000" height="1000"><path fill="#7FC19C" d="M882,999H118.2c-64.3,0-117-52.7-117-117V118.2c0-64.3,52.7-117,117-117H882c64.3,0,117,52.7,117,117V882,C999,946.3,946.3,999,882,999z"/><path fill="#FEFEFE" d="M436.4,735V416.8c-13.8,10.9-54.5,32.1-69.4,39.6l-21.2,10.9l-27.5-61.9l24.7-11.5,c47-21.8,90.6-49.3,109-63.7h70.5V735H436.4z"/><path fill="#FEFEFE" d="M787.4,744.2c-109,0-147.9-76.3-147.9-183.5c0-140.5,64.8-236.8,192.1-236.8c22.9,0,43.6,2.9,60.2,6.9,l-12.6,68.8c-10.9-4.6-31.5-9.7-54.5-9.7c-55.6,0-97.5,40.7-102.6,122.1c13.8-12,39.6-27.5,82.6-27.5,c65.9,0,119.8,44.2,119.8,119.8C924.4,685.1,870.5,744.2,787.4,744.2z M779.9,548.1c-24.7,0-44.7,9.7-52.8,22.4,c-4.6,6.9-4.6,22.4-4.6,34.4c0,38.4,21.8,75.7,61.9,75.7c39,0,59.1-32.7,59.1-67.7C843.6,575,818.9,548.1,779.9,548.1z"/><path fill="#FEFEFE" d="M235.7,735.2L135.4,595.5c-9.8-13.5-15.8-27.4-17.3-33h-0.8v172.8H62.9V470.1h53l94.6,136.7,c14.3,20.3,22.9,36.1,24.4,42.4h0.8V470.1h54.1v265.1H235.7z"/></svg>