<svg xmlns="http://www.w3.org/2000/svg" width="1000" height="1000"><path fill="#D2DE88" d="M882,999H118.2c-64.3,0-117-52.7-117-117V118.2c0-64.3,52.7-117,117-117H882c64.3,0,117,52.7,117,117V882,C999,946.3,946.3,999,882,999z"/><path d="M436.4,735V416.8c-13.8,10.9-54.5,32.1-69.4,39.6l-21.2,10.9l-27.5-61.9l24.7-11.5c47-21.8,90.6-49.3,109-63.7h70.5V735,H436.4z"/><path d="M778.2,745.3C656.1,745.3,632,627.2,632,533.7c0-93.5,26.4-211.6,148.5-211.6s146.2,118.1,146.2,211.6,C926.7,627.2,900.3,745.3,778.2,745.3z M779.3,390.4c-58.5,0-60.2,102.1-60.2,143.4c0,40.7,2.9,143.9,60.2,143.9,c57.3,0,59.6-103.8,59.6-143.9C839,491.3,837.3,390.4,779.3,390.4z"/><path d="M235.7,735.2L135.4,595.5c-9.8-13.5-15.8-27.4-17.3-33h-0.8v172.8H62.9V470.1h53l94.6,136.7,c14.3,20.3,22.9,36.1,24.4,42.4h0.8V470.1h54.1v265.1H235.7z"/></svg>