<svg xmlns="http://www.w3.org/2000/svg" width="1000" height="1000"><path fill="#AB2737" d="M882,999H118.2c-64.3,0-117-52.7-117-117V118.2c0-64.3,52.7-117,117-117H882c64.3,0,117,52.7,117,117V882,C999,946.3,946.3,999,882,999z"/><path fill="#FEFEFE" d="M436.4,735V416.8c-13.8,10.9-54.5,32.1-69.4,39.6l-21.2,10.9l-27.5-61.9l24.7-11.5,c47-21.8,90.6-49.3,109-63.7h70.5V735H436.4z"/><path fill="#FEFEFE" d="M753.5,743c-52.2,0-83.7-12-116.4-30.4l31-62.5c17.2,13.2,45.3,26.4,79.7,26.4c47,0,76.3-25.2,76.3-59.6,c0-46.4-35.6-61.4-76.8-61.4h-41.9v-67.1h42.4c39.6,0,64.2-19.5,64.2-50.5c0-25.8-19.5-48.2-61.9-48.2,c-37.3,0-61.9,17.8-75.1,29.2l-28.1-59.6c35-22.9,74-36.1,121.6-36.1c82.6,0,129.6,48.2,129.6,102.1c0,41.9-22.4,74-65.4,90v1.1,c44.7,8.6,78.6,41.9,78.6,98.6C911.2,686.3,847.6,743,753.5,743z"/><path fill="#FEFEFE" d="M235.7,735.2L135.4,595.5c-9.8-13.5-15.8-27.4-17.3-33h-0.8v172.8H62.9V470.1h53l94.6,136.7,c14.3,20.3,22.9,36.1,24.4,42.4h0.8V470.1h54.1v265.1H235.7z"/></svg>