<svg xmlns="http://www.w3.org/2000/svg" width="1000" height="1000"><path fill="#F09E27" d="M882,999H118.2c-64.3,0-117-52.7-117-117V118.2c0-64.3,52.7-117,117-117H882c64.3,0,117,52.7,117,117V882,C999,946.3,946.3,999,882,999z"/><path fill="#FEFEFE" d="M436.4,735V416.8c-13.8,10.9-54.5,32.1-69.4,39.6l-21.2,10.9l-27.5-61.9l24.7-11.5,c47-21.8,90.6-49.3,109-63.7h70.5V735H436.4z"/><path fill="#FEFEFE" d="M648,735v-53.3c10.3-47,56.8-88.3,110.7-135.3c27-23.5,56.2-51.6,56.2-90.6c0-35-22.9-63.1-67.1-63.1,c-35.6,0-60.2,25.8-70,36.7l-42.4-56.2c39-33.8,75.1-49.9,129.6-49.9c71.1,0,138.2,40.1,138.2,122.7c0,69.4-44.2,100.9-92.9,145.1,c-20.6,18.9-61.4,52.8-66.5,76.3h166.9V735H648z"/><path fill="#FEFEFE" d="M235.7,735.2L135.4,595.5c-9.8-13.5-15.8-27.4-17.3-33h-0.8v172.8H62.9V470.1h53l94.6,136.7,c14.3,20.3,22.9,36.1,24.4,42.4h0.8V470.1h54.1v265.1H235.7z"/></svg>