<svg xmlns="http://www.w3.org/2000/svg" width="1000" height="1000"><circle fill="#E43335" cx="500.1" cy="500.1" r="498.9"/><path fill="#FEFEFE" d="M498.6,764.3H309.1V235.6h197.7c86.1,0,191.7,19.5,191.7,134c0,54.7-43.4,95.9-84.6,103.3v1.5,c55.4,7.5,101.8,50.9,101.8,125.8C715.8,733.6,598.9,764.3,498.6,764.3z M483.6,324h-56.9v121.3h58.4c39.7,0,101.8,0.7,101.8-59.9,C587,322.5,521.8,324,483.6,324z M488.9,529.2h-62.2v147.5h68.1c54.7,0,103.3-10.5,103.3-79.4,C598.2,531.4,527.1,529.2,488.9,529.2z"/></svg>