<svg xmlns="http://www.w3.org/2000/svg" width="1000" height="1000"><path fill="#2B4383" d="M2970,998.2H118.2c-64.3,0-117-52.7-117-117V118c0-64.3,52.7-117,117-117H2970c64.4,0,117,52.7,117,117,v763.2C3087,945.5,3034.4,998.2,2970,998.2z"/><path fill="#FEFEFE" d="M2056.3,545.4c0,172.3-139.7,311.9-311.9,311.9s-311.9-139.7-311.9-311.9s166.3-311.9,311.9-311.9,C1916.6,233.4,2056.3,373.1,2056.3,545.4z"/><ellipse transform="matrix(0.8982 -0.4397 0.4397 0.8982 -23.2024 876.6373)" fill="#2B4383" cx="1880.8" cy="488.4" rx="306.6" ry="354.3"/><path fill="#FEFEFE" d="M588.5,827.8L325.6,461.6c-25.6-35.4-41.3-71.9-45.3-86.6h-2v452.9H135.6V132.7h138.8l248.1,358.4,c37.4,53.2,60.1,94.5,64,111.3h2V132.7h141.8v695.1H588.5z"/><path fill="#FEFEFE" d="M1089.6,846.5c-172.3,0-249.1-130-249.1-279.6c0-148.7,83.7-279.6,254-279.6,c172.3,0,249.1,129,249.1,278.6C1343.6,714.6,1259.9,846.5,1089.6,846.5z M1093.5,395.6c-87.6,0-109.3,97.5-109.3,171.3,c0,73.8,17.7,171.3,105.3,171.3s111.3-98.5,111.3-172.3C1200.8,492.1,1181.1,395.6,1093.5,395.6z"/><path fill="#FEFEFE" d="M2133.4,834.7c-93.5,0-151.6-50.2-151.6-151.6V411.3h-89.6v-98.5h91.6V205.6l136.8-44.3v151.6h119.1v98.5,h-119.1v255c0,52.2,27.6,64,59.1,64c28.6,0,48.2-6.9,60.1-10.8l13.8,101.4C2227.9,827.8,2179.7,834.7,2133.4,834.7z"/><path fill="#FEFEFE" d="M2420.9,235.1c-47.3,0-77.8-30.5-77.8-72.9s30.5-72.9,77.8-72.9c47.3,0,76.8,30.5,76.8,72.9,S2468.1,235.1,2420.9,235.1z M2351,827.8V302.1h138.8v525.7H2351z"/><path fill="#FEFEFE" d="M2761.5,845.5c-66,0-125-22.6-154.6-40.4l42.3-103.4c33.5,23.6,81.7,39.4,123.1,39.4,c36.4,0,80.7-11.8,80.7-53.2c0-36.4-39.4-47.3-66.9-58.1l-62-23.6c-74.8-28.6-105.3-76.8-105.3-138.8,c0-99.4,83.7-177.2,206.7-177.2c66,0,114.2,20.7,141.8,34.5L2925,426.1c-30.5-19.7-72.9-31.5-106.3-31.5,c-46.3,0-72.9,18.7-72.9,50.2c0,27.6,21.7,40.4,55.1,52.2l64,23.6c70.9,26.6,117.2,69.9,117.2,149.6,C2982.1,772.7,2899.4,845.5,2761.5,845.5z"/></svg>