<svg xmlns="http://www.w3.org/2000/svg" width="1000" height="1000"><path fill="#F1B3CC" d="M882,999H118.2c-64.3,0-117-52.7-117-117V118.2c0-64.3,52.7-117,117-117H882c64.3,0,117,52.7,117,117V882,C999,946.3,946.3,999,882,999z"/><path d="M305,776.3c-142.3,0-193.2-99.6-193.2-239.6c0-183.5,84.6-309.3,250.9-309.3c30,0,56.9,3.7,78.6,9l-16.5,89.9,c-14.2-6-41.2-12.7-71.1-12.7c-72.6,0-127.3,53.2-134,159.5c18-15.7,51.7-35.9,107.8-35.9c86.1,0,156.5,57.7,156.5,156.5,C484,699.2,413.6,776.3,305,776.3z M295.3,520.2c-32.2,0-58.4,12.7-68.9,29.2c-6,9-6,29.2-6,44.9c0,50.2,28.5,98.9,80.9,98.9,c50.9,0,77.1-42.7,77.1-88.4C378.4,555.4,346.2,520.2,295.3,520.2z"/><path d="M542.4,764.3v-69.6c13.5-61.4,74.1-115.3,144.5-176.7c35.2-30.7,73.4-67.4,73.4-118.3c0-45.7-30-82.4-87.6-82.4,c-46.4,0-78.6,33.7-91.4,47.9l-55.4-73.4c50.9-44.2,98.1-65.2,169.2-65.2c92.9,0,180.5,52.4,180.5,160.3,c0,90.6-57.7,131.8-121.3,189.5c-27,24.7-80.1,68.9-86.9,99.6h217.9v88.4H542.4z"/></svg>