<svg xmlns="http://www.w3.org/2000/svg" width="1000" height="1000"><path fill="#FEEA05" d="M882,999H118.2c-64.3,0-117-52.7-117-117V118.2c0-64.3,52.7-117,117-117H882c64.3,0,117,52.7,117,117V882,C999,946.3,946.3,999,882,999z"/><path d="M260.8,774.8c-68.1,0-109.3-15.7-152-39.7l40.4-81.6c22.5,17.2,59.2,34.4,104.1,34.4c61.4,0,99.6-33,99.6-77.9,c0-60.7-46.4-80.1-100.3-80.1h-54.7v-87.6h55.4c51.7,0,83.9-25.5,83.9-65.9c0-33.7-25.5-62.9-80.9-62.9,c-48.7,0-80.9,23.2-98.1,38.2l-36.7-77.9c45.7-30,96.6-47.2,158.8-47.2c107.8,0,169.2,62.9,169.2,133.3,c0,54.7-29.2,96.6-85.4,117.6v1.5c58.4,11.2,102.6,54.7,102.6,128.8C466.8,700.7,383.6,774.8,260.8,774.8z"/><path d="M542.4,764.3v-69.6c13.5-61.4,74.1-115.3,144.5-176.7c35.2-30.7,73.4-67.4,73.4-118.3c0-45.7-30-82.4-87.6-82.4,c-46.4,0-78.6,33.7-91.4,47.9l-55.4-73.4c50.9-44.2,98.1-65.2,169.2-65.2c92.9,0,180.5,52.4,180.5,160.3,c0,90.6-57.7,131.8-121.3,189.5c-27,24.7-80.1,68.9-86.9,99.6h217.9v88.4H542.4z"/></svg>