<svg xmlns="http://www.w3.org/2000/svg" width="1000" height="1000"><path fill="#F09E27" d="M882,999H118.2c-64.3,0-117-52.7-117-117V118.2c0-64.3,52.7-117,117-117H882c64.3,0,117,52.7,117,117V882,C999,946.3,946.3,999,882,999z"/><path fill="#FEFEFE" d="M230.1,773.3c-30,0-56.9-3.7-78.6-9l16.5-89.9c14.2,6,41.2,12.7,71.1,12.7c72.6,0,127.3-53.2,134-159.5,c-18,15.7-51.7,35.9-107.8,35.9c-86.1,0-156.5-57.7-156.5-156.5c0-105.6,70.4-182.7,179-182.7C430.1,224.4,481,324,481,464,C481,647.5,396.4,773.3,230.1,773.3z M291.5,307.5c-50.9,0-77.1,42.7-77.1,88.4c0,49.4,32.2,84.6,83.1,84.6,c32.2,0,58.4-12.7,68.9-29.2c6-9,6-29.2,6-44.9C372.4,356.2,344,307.5,291.5,307.5z"/><path fill="#FEFEFE" d="M680.2,774.8c-68.1,0-109.3-15.7-152-39.7l40.4-81.6c22.5,17.2,59.2,34.4,104.1,34.4,c61.4,0,99.6-33,99.6-77.9c0-60.7-46.4-80.1-100.3-80.1h-54.7v-87.6h55.4c51.7,0,83.9-25.5,83.9-65.9c0-33.7-25.5-62.9-80.9-62.9,c-48.7,0-80.9,23.2-98.1,38.2l-36.7-77.9c45.7-30,96.6-47.2,158.8-47.2c107.8,0,169.2,62.9,169.2,133.3,c0,54.7-29.2,96.6-85.4,117.6v1.5c58.4,11.2,102.6,54.7,102.6,128.8C886.1,700.7,803,774.8,680.2,774.8z"/></svg>