<svg xmlns="http://www.w3.org/2000/svg" width="1000" height="1000"><path fill="#FEEA05" d="M882,999H118.2c-64.3,0-117-52.7-117-117V118.2c0-64.3,52.7-117,117-117H882c64.3,0,117,52.7,117,117V882,C999,946.3,946.3,999,882,999z"/><path d="M230.1,773.3c-30,0-56.9-3.7-78.6-9l16.5-89.9c14.2,6,41.2,12.7,71.1,12.7c72.6,0,127.3-53.2,134-159.5,c-18,15.7-51.7,35.9-107.8,35.9c-86.1,0-156.5-57.7-156.5-156.5c0-105.6,70.4-182.7,179-182.7C430.1,224.4,481,324,481,464,C481,647.5,396.4,773.3,230.1,773.3z M291.5,307.5c-50.9,0-77.1,42.7-77.1,88.4c0,49.4,32.2,84.6,83.1,84.6,c32.2,0,58.4-12.7,68.9-29.2c6-9,6-29.2,6-44.9C372.4,356.2,344,307.5,291.5,307.5z"/><path d="M852.4,654.3v110.1H750.6V654.3H512.5v-98.1l205.2-320.5h134.8v336.2h65.2v82.4H852.4z M750.6,328.5h-1.5,c-2.2,9-17.2,41.2-38.2,74.1L603.1,571.9h147.5V328.5z"/></svg>