<svg xmlns="http://www.w3.org/2000/svg" width="1000" height="1000"><path fill="#E7BB28" d="M882,999H118.2c-64.3,0-117-52.7-117-117V118.2c0-64.3,52.7-117,117-117H882c64.3,0,117,52.7,117,117V882,C999,946.3,946.3,999,882,999z"/><path d="M433.1,654.3v110.1H331.2V654.3H93.1v-98.1l205.2-320.5h134.8v336.2h65.2v82.4H433.1z M331.2,328.5h-1.5,c-2.2,9-17.2,41.2-38.2,74.1L183.7,571.9h147.5V328.5z"/><path d="M852.4,654.3v110.1H750.6V654.3H512.5v-98.1l205.2-320.5h134.8v336.2h65.2v82.4H852.4z M750.6,328.5h-1.5,c-2.2,9-17.2,41.2-38.2,74.1L603.1,571.9h147.5V328.5z"/></svg>